<!-- Generated by IcoMoon.io -->
<svg version="1.1" xmlns="http://www.w3.org/2000/svg" width="16" height="16" viewBox="0 0 16 16">
<title>icon-formulate-globe</title>
<path d="M8 16c-4.418 0-8-3.582-8-8s3.582-8 8-8 8 3.582 8 8-3.582 8-8 8zM8 2c-3.313 0-6 2.687-6 6s2.687 6 6 6 6-2.687 6-6-2.687-6-6-6zM10.94 11.606l-0.176 0.103-0.508 0.31-0.3 0.218c-0.223 0.106-0.455 0.19-0.695 0.262v-0.295l-0.085-0.679c0 0-0.042-0.392-0.105-0.494s-0.212-0.248-0.36-0.31-0.254-0.062-0.339-0.164c-0.085-0.104-0.148-0.289-0.254-0.453s-0.233-0.33-0.233-0.412 0-0.927 0-0.927l0.106-0.782 0.232-0.165 0.275-0.309 0.19-0.062 0.656 0.123h0.466l0.191 0.392 0.444 0.35 0.275 0.433 0.359 0.123h0.402l0.275 0.33 0.17 0.35 0.063 0.247v0.412l-0.044 0.243c-0.269 0.44-0.609 0.828-1.009 1.157zM9.304 4.502l-0.466 0.247-0.169 0.474-0.275 0.247h-0.911l-0.423 0.165-0.021 0.329-0.169 0.268-0.043 0.289 0.085 0.247 0.105 0.247c0 0 0.255 0.288 0 0.494 0 0-0.317 0-0.381-0.104s-0.529-0.391-0.614-0.474c-0.084-0.082-0.359-0.164-0.359-0.164l-0.339-0.124-0.317-0.021 0.021-0.433-0.021-0.37-0.128-0.268-0.359-0.269-0.021-0.288 0.044-0.16c0.857-0.829 2.039-1.343 3.344-1.343 0.736 0 1.425 0.177 2.047 0.468l-0.014 0.108-0.614 0.433z"></path>
</svg>
