<!-- Generated by IcoMoon.io -->
<svg version="1.1" xmlns="http://www.w3.org/2000/svg" width="32" height="32" viewBox="0 0 32 32">
<title>icon-formulate-value-group</title>
<path d="M3 12l5-8h15l5 8v16h-25v-16zM26.775 12l-4.375-7h-13.8l-4.375 7h22.55zM4 13v14h23v-14h-23zM12.997 18h5.005c1.102 0 1.997 0.895 1.997 2 0 1.112-0.894 2-1.997 2h-5.005c-1.102 0-1.997-0.895-1.997-2 0-1.112 0.894-2 1.997-2zM13.003 19c-0.554 0-1.003 0.444-1.003 1 0 0.552 0.438 1 1.003 1h4.994c0.554 0 1.003-0.444 1.003-1 0-0.552-0.438-1-1.003-1h-4.994zM10 6l-0.6 1h12.2l-0.6-1h-11zM8.7 8l-0.6 1h14.8l-0.6-1h-13.6zM7.5 10l-0.6 1h17.2l-0.6-1h-16z"></path>
</svg>
