<!-- Generated by IcoMoon.io -->
<svg version="1.1" xmlns="http://www.w3.org/2000/svg" width="41" height="32" viewBox="0 0 41 32">
<title>formulate-layout-group</title>
<path d="M41.143 13.314h-2.286v11.429h2.286v6.857h-6.857v-2.286h-16v2.286h-6.857v-6.857h2.286v-2.286h-6.857v2.286h-6.857v-6.857h2.286v-11.429h-2.286v-6.857h6.857v2.286h16v-2.286h6.857v6.857h-2.286v2.286h6.857v-2.286h6.857v6.857zM36.571 8.743v2.286h2.286v-2.286h-2.286zM25.143 1.886v2.286h2.286v-2.286h-2.286zM2.286 1.886v2.286h2.286v-2.286h-2.286zM4.571 22.457v-2.286h-2.286v2.286h2.286zM27.429 20.171h-2.286v2.286h2.286v-2.286zM6.857 20.171h16v-2.286h2.286v-11.429h-2.286v-2.286h-16v2.286h-2.286v11.429h2.286v2.286zM16 29.314v-2.286h-2.286v2.286h2.286zM38.857 29.314v-2.286h-2.286v2.286h2.286zM36.571 24.743v-11.429h-2.286v-2.286h-6.857v6.857h2.286v6.857h-6.857v-2.286h-6.857v2.286h2.286v2.286h16v-2.286h2.286z"></path>
</svg>
