<!-- Generated by IcoMoon.io -->
<svg version="1.1" xmlns="http://www.w3.org/2000/svg" width="32" height="32" viewBox="0 0 32 32">
<title>formulate-store-data</title>
<path d="M20 19v2.002c0 1.1-0.894 1.998-1.997 1.998h-5.005c-1.102 0-1.997-0.895-1.997-1.998v-2.002h-4v-12.997c0-0.564 0.446-1.003 0.996-1.003h10.004v4.994c0 1.119 0.895 2.006 1.998 2.006h4.002v7h-4zM28 20.5v-1.5l-3-4.8v-3.2l-6-7h-10.997c-1.106 0-2.003 0.897-2.003 2.005v8.195l-3 4.8v9h25v-7.5zM6 19h-1.775l1.775-2.84v2.84zM26.775 19h-1.775v-2.84l1.775 2.84zM19 5.5l4.7 5.5h-3.703c-0.546 0-0.997-0.452-0.997-1.009v-4.491z"></path>
</svg>
