<!-- Generated by IcoMoon.io -->
<svg version="1.1" xmlns="http://www.w3.org/2000/svg" width="32" height="32" viewBox="0 0 32 32">
<title>formulate-header</title>
<path d="M30.036 30q-0.786 0-2.366-0.063t-2.384-0.063q-0.786 0-2.357 0.063t-2.357 0.063q-0.429 0-0.661-0.366t-0.232-0.813q0-0.554 0.304-0.821t0.696-0.304 0.911-0.125 0.804-0.268q0.589-0.375 0.589-2.5l-0.018-6.982q0-0.375-0.018-0.554-0.232-0.071-0.893-0.071h-12.054q-0.679 0-0.911 0.071-0.018 0.179-0.018 0.554l-0.018 6.625q0 2.536 0.661 2.929 0.286 0.179 0.857 0.232t1.018 0.063 0.804 0.268 0.357 0.813q0 0.464-0.223 0.857t-0.652 0.393q-0.839 0-2.491-0.063t-2.473-0.063q-0.768 0-2.286 0.063t-2.268 0.063q-0.411 0-0.634-0.375t-0.223-0.804q0-0.536 0.277-0.804t0.643-0.313 0.848-0.134 0.75-0.268q0.589-0.411 0.589-2.554l-0.018-1.018v-14.518q0-0.054 0.009-0.464t0-0.652-0.027-0.688-0.063-0.75-0.116-0.652-0.196-0.563-0.286-0.321q-0.268-0.179-0.804-0.214t-0.946-0.036-0.732-0.25-0.321-0.804q0-0.464 0.214-0.857t0.643-0.393q0.821 0 2.473 0.063t2.473 0.063q0.75 0 2.259-0.063t2.259-0.063q0.446 0 0.67 0.393t0.223 0.857q0 0.536-0.304 0.777t-0.688 0.259-0.884 0.071-0.768 0.232q-0.625 0.375-0.625 2.857l0.018 5.714q0 0.375 0.018 0.571 0.232 0.054 0.696 0.054h12.482q0.446 0 0.679-0.054 0.018-0.196 0.018-0.571l0.018-5.714q0-2.482-0.625-2.857-0.321-0.196-1.045-0.223t-1.179-0.232-0.455-0.884q0-0.464 0.223-0.857t0.67-0.393q0.786 0 2.357 0.063t2.357 0.063q0.768 0 2.304-0.063t2.304-0.063q0.446 0 0.67 0.393t0.223 0.857q0 0.536-0.313 0.786t-0.714 0.259-0.92 0.054-0.786 0.223q-0.625 0.411-0.625 2.875l0.018 16.839q0 2.125 0.607 2.5 0.286 0.179 0.821 0.241t0.955 0.080 0.741 0.277 0.321 0.795q0 0.464-0.214 0.857t-0.643 0.393z"></path>
</svg>
