<!-- Generated by IcoMoon.io -->
<svg version="1.1" xmlns="http://www.w3.org/2000/svg" width="32" height="32" viewBox="0 0 32 32">
<title>formulate-value-group</title>
<path d="M30.494 17.037l-5.074-12.683c-0.374-0.939-1.283-1.554-2.294-1.554h-14.253c-1.011 0-1.92 0.614-2.294 1.554l-5.074 12.683c-0.461 1.154-0.597 2.411-0.394 3.635l0.944 5.662c0.198 1.192 1.229 2.066 2.437 2.066h23.013c1.208 0 2.238-0.874 2.437-2.066l0.944-5.662c0.206-1.224 0.070-2.482-0.392-3.635zM27.134 23.992c-0.115 0.698-0.718 1.208-1.426 1.208h-19.418c-0.707 0-1.31-0.51-1.426-1.208l-0.584-3.509c-0.149-0.882 0.531-1.683 1.426-1.683h20.587c0.893 0 1.573 0.802 1.426 1.683l-0.586 3.509z"></path>
</svg>
