<?xml version="1.0" encoding="UTF-8" standalone="no"?>
<!DOCTYPE svg PUBLIC "-//W3C//DTD SVG 1.1//EN" "http://www.w3.org/Graphics/SVG/1.1/DTD/svg11.dtd">
<svg width="100%" height="100%" viewBox="0 0 100 100" version="1.1" xmlns="http://www.w3.org/2000/svg" xmlns:xlink="http://www.w3.org/1999/xlink" xml:space="preserve" xmlns:serif="http://www.serif.com/" style="fill-rule:evenodd;clip-rule:evenodd;stroke-linecap:round;stroke-linejoin:round;stroke-miterlimit:1.5;">
    <g transform="matrix(0.936833,0,0,1,2.88124,-1)">
        <path d="M99.347,38.882C99.347,33.706 94.862,29.504 89.337,29.504L11.533,29.504C6.008,29.504 1.523,33.706 1.523,38.882L1.523,57.637C1.523,62.813 6.008,67.015 11.533,67.015L89.337,67.015C94.862,67.015 99.347,62.813 99.347,57.637L99.347,38.882Z" style="fill:rgb(235,235,235);fill-opacity:0;stroke:black;stroke-width:6.45px;"/>
    </g>
    <g transform="matrix(1,0,0,1,14.4064,-6.30722)">
        <g transform="matrix(1,-0,-0,1,-14.4064,6.30722)">
            <path d="M38.857,61.466L20.107,52.091L38.857,42.716L38.857,61.466Z"/>
            <path d="M70.847,37.902L70.847,52.091L35.107,52.091" style="fill:none;stroke:black;stroke-width:8.33px;"/>
        </g>
    </g>
</svg>
