<!-- Generated by IcoMoon.io -->
<svg version="1.1" xmlns="http://www.w3.org/2000/svg" width="32" height="32" viewBox="0 0 32 32">
<title>formulate-hidden</title>
<path d="M31.33 8.944c-0.069-0.75-0.739-1.285-1.472-1.168-2.787 0.445-9.322 3.024-13.858 3.024s-11.070-2.579-13.858-3.024c-0.733-0.117-1.402 0.416-1.472 1.166-0.227 2.451-0.67 8.978-0.67 9.966 0 1.328 5.555 4.371 9.6 4.371 3.923 0 4.72-4.371 6.4-4.371s2.477 4.371 6.4 4.371c4.045 0 9.6-3.043 9.6-4.371 0-0.989-0.443-7.515-0.67-9.965zM12.256 16.752c-0.565 0.509-2.136 1.712-4.050 1.336s-3.070-2.117-3.466-2.813c-0.096-0.17-0.066-0.384 0.070-0.507 0.565-0.509 2.136-1.712 4.051-1.336 1.914 0.376 3.070 2.117 3.466 2.813 0.094 0.17 0.064 0.384-0.072 0.507zM27.259 15.275c-0.394 0.698-1.55 2.437-3.466 2.813-1.914 0.376-3.486-0.827-4.050-1.336-0.138-0.123-0.166-0.338-0.072-0.507 0.394-0.698 1.55-2.437 3.466-2.813 1.914-0.376 3.486 0.827 4.050 1.336 0.138 0.123 0.168 0.338 0.072 0.507z"></path>
</svg>
