<!-- Generated by IcoMoon.io -->
<svg version="1.1" xmlns="http://www.w3.org/2000/svg" width="32" height="32" viewBox="0 0 32 32">
<title>icon-formulate-value</title>
<path d="M21 20h6v7h-23v-7h6v1.5c0 1.381 1.115 2.5 2.496 2.5h6.008c1.379 0 2.496-1.11 2.496-2.5v-1.5zM3 19.5v8.5h25v-9l-3-4.8v-3.2l-6-7h-10.997c-1.106 0-2.003 0.897-2.003 2.005v8.195l-3 4.8v0.5zM6 19h-1.775l1.775-2.84v2.84zM25 19v-2.84l1.775 2.84h-1.775zM7 19v-12.997c0-0.564 0.446-1.003 0.996-1.003h10.004v4.994c0 1.119 0.895 2.006 1.998 2.006h4.002v7h-17zM19 5.5l4.7 5.5h-3.703c-0.546 0-0.997-0.452-0.997-1.009v-4.491zM11 20h9v1.5c0 0.834-0.674 1.5-1.506 1.5h-5.987c-0.83 0-1.506-0.672-1.506-1.5v-1.5zM9 15v1h13v-1h-13zM9 7v1h7v-1h-7zM9 11v1h7v-1h-7z"></path>
</svg>
